<svg width="180" height="180" viewBox="0 0 180 180" fill="none" xmlns="http://www.w3.org/2000/svg">
  <defs>
    <linearGradient id="bg" x1="0" y1="0" x2="180" y2="180" gradientUnits="userSpaceOnUse">
      <stop offset="0%" stop-color="#FF7A00"/>
      <stop offset="100%" stop-color="#E03A00"/>
    </linearGradient>
    <linearGradient id="top" x1="40" y1="32" x2="140" y2="90" gradientUnits="userSpaceOnUse">
      <stop offset="0%" stop-color="#FFE5A0"/>
      <stop offset="100%" stop-color="#FFB340"/>
    </linearGradient>
    <linearGradient id="left" x1="32" y1="82" x2="90" y2="148" gradientUnits="userSpaceOnUse">
      <stop offset="0%" stop-color="#FF6A00"/>
      <stop offset="100%" stop-color="#B83000"/>
    </linearGradient>
    <linearGradient id="right" x1="90" y1="82" x2="148" y2="148" gradientUnits="userSpaceOnUse">
      <stop offset="0%" stop-color="#FF8C20"/>
      <stop offset="100%" stop-color="#CC4400"/>
    </linearGradient>
  </defs>
  <rect width="180" height="180" rx="42" fill="url(#bg)"/>
  <rect width="180" height="180" rx="42" fill="white" fill-opacity="0.06"/>
  <!-- Top face -->
  <path d="M90 34 L148 68 L90 102 L32 68 Z" fill="url(#top)"/>
  <path d="M90 34 L148 68 L90 102 L32 68 Z" fill="none" stroke="white" stroke-width="1.5" stroke-opacity="0.35"/>
  <!-- Left face -->
  <path d="M32 68 L90 102 L90 146 L32 112 Z" fill="url(#left)"/>
  <!-- Right face -->
  <path d="M90 102 L148 68 L148 112 L90 146 Z" fill="url(#right)"/>
  <!-- Bottom edge subtle highlight -->
  <path d="M32 112 L90 146 L148 112" stroke="white" stroke-width="1" stroke-opacity="0.12" fill="none"/>
</svg>
